<?xml version="1.0" encoding="UTF-8"?>
<svg width="512px" height="512px" viewBox="0 0 512 512" version="1.1" xmlns="http://www.w3.org/2000/svg" xmlns:xlink="http://www.w3.org/1999/xlink" style="background: #FBFBFB;">
    <!-- Generator: Sketch 41.2 (35397) - http://www.bohemiancoding.com/sketch -->
    <title>Artboard</title>
    <desc>Created with Sketch.</desc>
    <defs></defs>
    <g id="Misc-/-Old" stroke="none" stroke-width="1" fill="none" fill-rule="evenodd">
        <g id="Artboard">
            <g id="No-Background" transform="translate(256.000000, 256.000000) rotate(45.000000) translate(-256.000000, -256.000000) translate(67.000000, 67.000000)">
                <g id="Group-5">
                    <path d="M189,189 C189,136.809091 231.309091,94.5 283.5,94.5 C335.690909,94.5 378,136.809091 378,189 C378,293.381818 293.381818,378 189,378 C84.6181823,378 0,293.381818 0,189 C0,241.190909 42.3090911,283.5 94.5,283.5 C146.690909,283.5 189,241.190909 189,189 Z" id="Combined-Shape" fill="#00B0C3"></path>
                    <ellipse id="Oval-2" fill="#FFFFFF" cx="283.5" cy="189" rx="18.9" ry="18.9"></ellipse>
                    <path d="M189,94.5 C189,42.3090911 231.309091,-1.42108547e-13 283.5,-1.42108547e-13 C335.690909,-1.42108547e-13 378,42.3090911 378,94.5 C377.999962,198.881856 293.381794,283.5 189,283.5 C84.6181823,283.5 0,198.881818 0,94.5 C-7.10542736e-14,146.690909 42.3090911,189 94.5,189 C146.690909,189 189,146.690909 189,94.5 Z" id="Combined-Shape" fill="#F56643" transform="translate(189.000000, 141.750000) rotate(180.000000) translate(-189.000000, -141.750000) "></path>
                    <circle id="Oval" fill="#FFFFFF" cx="94.5" cy="189" r="18.9"></circle>
                </g>
            </g>
        </g>
    </g>
</svg>