<?xml version="1.0" encoding="UTF-8"?>
<svg width="46px" height="45px" viewBox="0 0 46 45" version="1.1" xmlns="http://www.w3.org/2000/svg" xmlns:xlink="http://www.w3.org/1999/xlink">
    <!-- Generator: Sketch 42 (36781) - http://www.bohemiancoding.com/sketch -->
    <title>Option</title>
    <desc>Created with Sketch.</desc>
    <defs></defs>
    <g id="Page-1" stroke="none" stroke-width="1" fill="none" fill-rule="evenodd">
        <g id="Icons" transform="translate(-98.000000, -738.000000)" fill="#353535">
            <g id="Option" transform="translate(97.000000, 737.000000)">
                <path d="M43.338,29.044 L41.295,29.965 C40.925,30.135 40.747,30.552 40.886,30.936 L41.675,32.987 C42.384,34.878 42.127,36.918 40.971,38.59 C39.746,40.27 37.846,41.26 35.872,41.26 C35.171,41.26 34.429,41.116 33.667,40.833 L31.553,40.017 C31.494,39.993 31.416,39.974 31.296,39.974 C30.998,39.974 30.723,40.151 30.597,40.425 L29.657,42.44 C28.639,44.642 26.479,46.01 24.022,46.01 C21.564,46.01 19.403,44.642 18.385,42.438 L17.448,40.428 C17.325,40.149 17.047,39.974 16.747,39.974 C16.613,39.974 16.558,39.989 16.522,40.005 L14.374,40.805 C13.673,41.069 12.931,41.204 12.171,41.204 C10.124,41.204 8.218,40.217 7.073,38.563 C5.907,36.957 5.644,34.921 6.364,32.995 L7.163,30.918 C7.295,30.553 7.117,30.134 6.743,29.962 L4.703,29.043 C2.413,28.018 0.988,25.905 0.988,23.53 C0.988,21.113 2.379,18.989 4.62,17.988 L6.663,17.067 C7.032,16.898 7.209,16.478 7.07,16.093 L6.282,14.044 C5.57,12.179 5.827,10.148 6.987,8.471 C8.193,6.809 10.094,5.829 12.085,5.829 C12.84,5.829 13.582,5.963 14.29,6.228 L16.392,7.01 C16.463,7.039 16.541,7.058 16.661,7.058 C16.96,7.058 17.235,6.88 17.361,6.605 L18.3,4.589 C19.312,2.406 21.558,0.994 24.022,0.994 C26.479,0.994 28.639,2.362 29.658,4.565 L30.595,6.576 C30.718,6.855 30.997,7.03 31.296,7.03 C31.43,7.03 31.485,7.015 31.521,6.999 L33.667,6.199 C34.377,5.934 35.119,5.8 35.872,5.8 C37.919,5.8 39.825,6.787 40.97,8.44 C42.137,10.048 42.399,12.084 41.678,14.009 L40.88,16.085 C40.747,16.451 40.925,16.869 41.3,17.041 L43.34,17.961 C45.578,18.961 46.97,21.084 46.97,23.502 C46.97,25.919 45.578,28.043 43.338,29.044 L43.338,29.044 Z M42.502,19.766 L40.453,18.842 C39.123,18.233 38.494,16.755 38.986,15.401 L39.787,13.315 C40.271,12.024 40.101,10.657 39.314,9.575 C38.245,8.031 36.174,7.388 34.382,8.054 L32.28,8.838 C32.012,8.952 31.685,9.014 31.296,9.014 C30.189,9.014 29.19,8.375 28.752,7.385 L27.823,5.389 C27.134,3.902 25.677,2.978 24.022,2.978 C22.347,2.978 20.822,3.935 20.136,5.414 L19.198,7.427 C18.745,8.407 17.749,9.042 16.661,9.042 C16.401,9.042 16.012,9.008 15.634,8.849 L13.575,8.083 C11.832,7.431 9.767,8.057 8.642,9.605 C7.87,10.723 7.693,12.092 8.171,13.344 L8.965,15.411 C9.461,16.784 8.831,18.262 7.509,18.868 L5.458,19.793 C3.944,20.469 3.006,21.901 3.006,23.53 C3.006,25.117 3.977,26.538 5.541,27.238 L7.59,28.161 C8.918,28.77 9.547,30.247 9.058,31.602 L8.255,33.688 C7.771,34.98 7.944,36.346 8.729,37.428 C9.51,38.557 10.792,39.22 12.171,39.22 C12.682,39.22 13.182,39.129 13.656,38.95 L15.765,38.166 C16.032,38.051 16.358,37.989 16.747,37.989 C17.855,37.989 18.853,38.629 19.291,39.619 L20.22,41.615 C20.909,43.102 22.365,44.025 24.022,44.025 C25.677,44.025 27.134,43.102 27.822,41.617 L28.76,39.602 C29.211,38.624 30.207,37.989 31.296,37.989 C31.556,37.989 31.945,38.023 32.323,38.183 L34.393,38.981 C34.914,39.175 35.416,39.276 35.872,39.276 C37.197,39.276 38.485,38.595 39.316,37.454 C40.087,36.339 40.262,34.956 39.784,33.681 L38.992,31.62 C38.494,30.249 39.123,28.771 40.448,28.164 L42.499,27.239 C44.014,26.562 44.952,25.13 44.952,23.502 C44.952,21.873 44.014,20.441 42.502,19.766 L42.502,19.766 Z M23.979,32.912 C18.701,32.912 14.408,28.691 14.408,23.502 C14.408,18.313 18.701,14.091 23.979,14.091 C29.256,14.091 33.55,18.313 33.55,23.502 C33.55,28.691 29.256,32.912 23.979,32.912 L23.979,32.912 Z M23.979,16.075 C19.814,16.075 16.426,19.407 16.426,23.502 C16.426,27.596 19.814,30.928 23.979,30.928 C28.143,30.928 31.532,27.596 31.532,23.502 C31.532,19.407 28.143,16.075 23.979,16.075 L23.979,16.075 Z" id="Shape"></path>
            </g>
        </g>
    </g>
</svg>